# xmcd
#
# Track frame offsets:
#	150
#	15275
#	31496
#	56040
#	83705
#	102772
#	125910
#	142233
#	163979
#	181151
#
# Disc length: 2671 seconds
#
# Revision: 0
# Processed by: cddbd v1.5.2PL0 Copyright (c) Steve Scherf et al.
# Submitted via: EZCDAudioConverter 3.0.8.1
#
DISCID=860a6d0a
DTITLE=Boobie Knight and the Universal Lady - Earth Creature
DYEAR=1974
DGENRE=Soul-Funk
TTITLE0=Feeling My Cheerios
TTITLE1=Burn the Saturday Night Fever
TTITLE2=April
TTITLE3=Power Greater Than Man
TTITLE4=Somebody Toouch Me (in the Right Place)
TTITLE5=Flamming Youth
TTITLE6=Ain't Nobody Better Dan You
TTITLE7=A Woman Will Make You Love
TTITLE8=The Lovomaniacs
TTITLE9=Earth Creature
EXTD=
EXTT0=
EXTT1=
EXTT2=
EXTT3=
EXTT4=
EXTT5=
EXTT6=
EXTT7=
EXTT8=
EXTT9=
PLAYORDER=
